
<svg id="Layer_1" data-name="Layer 1" xmlns="http://www.w3.org/2000/svg" viewBox="0 0 1840.82 1154.92"><defs><style>.cls-1{fill:#f44c11;}.cls-2{fill:#f7780f;}.cls-3{fill:#164870;}.cls-4,.cls-6{fill:#eee;}.cls-5{fill:#4aa6ce;}.cls-6{opacity:0.76;}</style></defs><path class="cls-1" d="M1490.5,406.75v86.09H1328.67V406.75a53.38,53.38,0,0,1,53.38-53.38h55.07A53.38,53.38,0,0,1,1490.5,406.75Z" transform="translate(-415.18 -353.37)"/><path class="cls-1" d="M1490.5,406.75v86.09H1360.61V406.75a53.38,53.38,0,0,1,50.57-53.3c.93-.06,1.86-.08,2.81-.08h23.13A53.38,53.38,0,0,1,1490.5,406.75Z" transform="translate(-415.18 -353.37)"/><path class="cls-2" d="M1461.75,406.75v86.09H1360.61V406.75a50.64,50.64,0,1,1,101.14,0Z" transform="translate(-415.18 -353.37)"/><path class="cls-3" d="M1496.89,518.4H1323.35a25.56,25.56,0,0,1-25.56-25.56h0a25.55,25.55,0,0,1,25.56-25.55h173.54a25.55,25.55,0,0,1,25.55,25.55h0A25.55,25.55,0,0,1,1496.89,518.4Z" transform="translate(-415.18 -353.37)"/><path class="cls-1" d="M775,406.75v86.09H613.21V406.75a53.38,53.38,0,0,1,53.38-53.38h55.07A53.38,53.38,0,0,1,775,406.75Z" transform="translate(-415.18 -353.37)"/><path class="cls-1" d="M775,406.75v86.09H645.15V406.75a53.38,53.38,0,0,1,50.57-53.3c.93-.06,1.86-.08,2.81-.08h23.13A53.38,53.38,0,0,1,775,406.75Z" transform="translate(-415.18 -353.37)"/><path class="cls-2" d="M746.29,406.75v86.09H645.15V406.75a50.64,50.64,0,1,1,101.14,0Z" transform="translate(-415.18 -353.37)"/><path class="cls-3" d="M781.43,518.4H607.89a25.56,25.56,0,0,1-25.56-25.56h0a25.55,25.55,0,0,1,25.56-25.55H781.43A25.55,25.55,0,0,1,807,492.84h0A25.55,25.55,0,0,1,781.43,518.4Z" transform="translate(-415.18 -353.37)"/><path class="cls-4" d="M1947.06,983.6a228.1,228.1,0,0,1-107.77-91.41l-59.55-96.6-129.3-209.74a181.76,181.76,0,0,0-154.72-86.37H574.89A107.93,107.93,0,0,0,467,607.41v743.88H2200.64V1203.72A173.32,173.32,0,0,0,2093,1043.33Z" transform="translate(-415.18 -353.37)"/><rect class="cls-5" y="961.4" width="1840.82" height="76.66" rx="30.72"/><circle class="cls-3" cx="426.74" cy="998.75" r="155.33"/><circle class="cls-3" cx="1965.14" cy="1352.96" r="155.33" transform="translate(-796.29 1432.46) rotate(-45)"/><circle class="cls-4" cx="426.93" cy="998.66" r="53.23"/><circle class="cls-4" cx="1550.16" cy="998.66" r="53.23"/><path class="cls-5" d="M997.56,662.81v65.71a87.87,87.87,0,0,1-88,88H687.35l-2.3,0a88,88,0,0,1-85.65-85.65c0-.77,0-1.53,0-2.3V662.81a87.94,87.94,0,0,1,88-88H909.57A88,88,0,0,1,997.56,662.81Z" transform="translate(-415.18 -353.37)"/><path class="cls-6" d="M877.77,816.5H772.39L601.13,645.24A88.1,88.1,0,0,1,646.26,585Z" transform="translate(-415.18 -353.37)"/><path class="cls-6" d="M951,806.16a87.67,87.67,0,0,1-17.86,7.15L694.67,574.82h25Z" transform="translate(-415.18 -353.37)"/><path class="cls-6" d="M710.09,816.5H687.35l-2.3,0L599.4,730.82c0-.77,0-1.53,0-2.3V705.78Z" transform="translate(-415.18 -353.37)"/><path class="cls-5" d="M1763.74,964.49h-602a79,79,0,0,1-79-79V654.09a79,79,0,0,1,79-79h323.15c26.3,0,50.25,11.71,64,31.32L1678.18,790l59.52,84.55A301.06,301.06,0,0,0,1780,922.84C1796.07,937.66,1785.6,964.49,1763.74,964.49Z" transform="translate(-415.18 -353.37)"/><polygon class="cls-6" points="836.83 611.12 817.16 611.12 667.55 461.51 667.55 441.84 836.83 611.12"/><path class="cls-6" d="M1444.72,964.49h-16.48L1088.4,624.66a77.94,77.94,0,0,1,5.47-11Z" transform="translate(-415.18 -353.37)"/><polygon class="cls-6" points="972.05 611.12 881.04 611.12 667.55 397.63 667.55 306.63 972.05 611.12"/><path class="cls-5" d="M1164.77,1036.83H1105a17,17,0,0,1-17-17h0a17,17,0,0,1,17-17h59.74a17,17,0,0,1,17,17h0A17,17,0,0,1,1164.77,1036.83Z" transform="translate(-415.18 -353.37)"/><polygon class="cls-5" points="480.17 631.4 394.95 631.4 394.95 546.18 323.52 546.18 323.52 631.4 239.55 631.4 239.55 702.83 323.52 702.83 323.52 786.79 394.95 786.79 394.95 702.83 480.17 702.83 480.17 631.4"/></svg>
